<svg width="87" height="100" viewBox="0 0 87 100" fill="none" xmlns="http://www.w3.org/2000/svg">
<g clip-path="url(#clip0_162_7)">
<path d="M43.4471 99.6866L8.04152 89.7477L0.151367 0.263184H86.8489L78.9506 89.734L43.4471 99.6866Z" fill="#264DE4"/>
<path d="M72.1886 84.0369L78.9379 7.57983H43.5V92.0792L72.1886 84.0369Z" fill="#2965F1"/>
<path d="M18.239 40.7683L19.2116 51.7432H43.4999V40.7683H18.239ZM16.2842 18.5549L17.2707 29.5298H43.4999V18.5549H16.2842ZM43.4999 69.2714L43.4523 69.2841L31.3647 65.9838L30.5919 57.2309H19.6966L21.217 74.4632L43.4499 80.7037L43.4999 80.69V69.2714Z" fill="#EBEBEB"/>
<path d="M68.6912 40.7683L70.6504 18.5549H43.4623V29.5298H58.7559L57.7683 40.7683H43.4623V51.7432H56.8273L55.5671 65.9769L43.4619 69.2807V80.6986L65.7125 74.4632L65.8756 72.6089L68.4265 43.7154L68.6912 40.7683Z" fill="white"/>
</g>
<defs>
<clipPath id="clip0_162_7">
<rect width="87" height="100" fill="white"/>
</clipPath>
</defs>
</svg>
