<svg width="67" height="100" viewBox="0 0 67 100" fill="none" xmlns="http://www.w3.org/2000/svg">
<g clip-path="url(#clip0_162_18)">
<path d="M16.75 100C25.996 100 33.5 92.5334 33.5 83.3334V66.6667H16.75C7.504 66.6667 0 74.1334 0 83.3334C0 92.5334 7.504 100 16.75 100Z" fill="#0ACF83"/>
<path d="M0 49.9999C0 40.7999 7.504 33.3333 16.75 33.3333H33.5V66.6666H16.75C7.504 66.6666 0 59.1999 0 49.9999Z" fill="#A259FF"/>
<path d="M0 16.6667C0 7.46667 7.504 0 16.75 0H33.5V33.3333H16.75C7.504 33.3333 0 25.8667 0 16.6667Z" fill="#F24E1E"/>
<path d="M33.5 0H50.25C59.496 0 67 7.46667 67 16.6667C67 25.8667 59.496 33.3333 50.25 33.3333H33.5V0Z" fill="#FF7262"/>
<path d="M67 49.9999C67 59.1999 59.496 66.6666 50.25 66.6666C41.004 66.6666 33.5 59.1999 33.5 49.9999C33.5 40.7999 41.004 33.3333 50.25 33.3333C59.496 33.3333 67 40.7999 67 49.9999Z" fill="#1ABCFE"/>
</g>
<defs>
<clipPath id="clip0_162_18">
<rect width="67" height="100" fill="white"/>
</clipPath>
</defs>
</svg>
