<svg width="88" height="100" viewBox="0 0 88 100" fill="none" xmlns="http://www.w3.org/2000/svg">
<g clip-path="url(#clip0_162_2)">
<path d="M87.8474 0.263184L79.8583 89.734L43.9467 99.6866L8.13416 89.7477L0.15332 0.263184H87.8474Z" fill="#E44D26"/>
<path d="M44 92.0791L73.0183 84.0369L79.8452 7.57983H44V92.0791Z" fill="#F16529"/>
<path d="M28.4696 29.5298H44.0002V18.5549H16.4717L16.7343 21.4993L19.4327 51.7432H44.0002V40.7683H29.473L28.4696 29.5298ZM30.9439 57.2309H19.9233L21.4612 74.4632L43.9497 80.7037L44.0002 80.69V69.2714L43.9521 69.2841L31.7256 65.9838L30.9439 57.2309Z" fill="#EBEBEB"/>
<path d="M43.9623 51.7432H57.4809L56.2063 65.9769L43.9619 69.2807V80.6986L66.4683 74.4632L66.6333 72.6089L69.2134 43.7154L69.4812 40.7683H43.9623V51.7432ZM43.9623 29.503V29.5298H70.4802L70.7002 27.0632L71.2007 21.4993L71.4629 18.5549H43.9623V29.503Z" fill="white"/>
</g>
<defs>
<clipPath id="clip0_162_2">
<rect width="88" height="100" fill="white"/>
</clipPath>
</defs>
</svg>
