<svg width="100" height="100" viewBox="0 0 100 100" fill="none" xmlns="http://www.w3.org/2000/svg">
<path d="M7.51922 25.1413C-1.09719 37.5249 -0.0245336 53.6382 6.5575 66.7976C6.71375 67.1132 6.87781 67.4233 7.03953 67.7335L7.34734 68.3265L7.53953 68.6679L7.8825 69.2819C8.08719 69.6418 8.29656 70.0009 8.51062 70.3593L8.86922 70.9499C9.10672 71.3327 9.34969 71.7129 9.59812 72.0905L9.90906 72.5702C10.252 73.0819 10.6028 73.5929 10.9653 74.0944L10.9958 74.1335L11.1739 74.3741C11.488 74.8064 11.8088 75.2332 12.1364 75.6546L12.4989 76.1155C12.7906 76.4817 13.0869 76.846 13.388 77.2085L13.7278 77.6147C14.1332 78.0932 14.5463 78.5651 14.9669 79.0304L14.9927 79.0561L15.0403 79.1093C15.4536 79.5578 15.8734 80.0003 16.2997 80.4366L16.7036 80.8436C17.0343 81.1759 17.3695 81.5046 17.7091 81.8296L18.1208 82.2202C18.5734 82.6473 19.0328 83.0658 19.4989 83.4757L19.5208 83.4929L19.7606 83.6976C20.1731 84.0548 20.5906 84.4072 21.013 84.7546L21.5317 85.1679C21.8765 85.4444 22.2244 85.7163 22.5755 85.9835L23.1333 86.4077C23.5208 86.6931 23.9111 86.9731 24.3044 87.2476L24.7309 87.5499L24.8481 87.6335C25.2216 87.8905 25.6036 88.1382 25.9856 88.3858L26.4778 88.714C27.0637 89.0843 27.6575 89.4507 28.2583 89.8046L28.7505 90.0819C29.1916 90.3371 29.6369 90.5869 30.0864 90.8311C30.3302 90.9624 30.5802 91.0866 30.8255 91.2124C31.1434 91.3788 31.4591 91.5476 31.7825 91.7093L32.0036 91.8163L32.395 92.0054C32.8955 92.2449 33.4007 92.4785 33.9106 92.7061L34.2309 92.8499C34.8157 93.1057 35.4051 93.3508 35.9989 93.5851L36.4294 93.7546C36.9794 93.9663 37.5372 94.1757 38.0973 94.3725L38.3067 94.4452C38.9216 94.66 39.5419 94.8593 40.1669 95.0538L40.6161 95.1882C41.252 95.3796 41.8809 95.6085 42.5364 95.7296C84.2075 103.329 96.3122 70.6882 96.3122 70.6882C86.1458 83.9327 68.1005 87.4265 51.0028 83.5366C50.3552 83.3905 49.727 83.1882 49.095 83.0015L48.6192 82.8569C48.0034 82.6681 47.3908 82.4689 46.7817 82.2593L46.5294 82.1679C45.9862 81.9759 45.4461 81.7756 44.9091 81.5671L44.4544 81.3882C43.8658 81.1564 43.2828 80.914 42.7052 80.6608L42.3559 80.5061C41.8615 80.2828 41.3695 80.0538 40.8802 79.8194L40.4536 79.6147C40.07 79.428 39.6903 79.2296 39.3122 79.0343C39.0591 78.9007 38.8012 78.7749 38.5505 78.6358C38.0902 78.3879 37.6341 78.1321 37.1825 77.8686L36.7208 77.6108C36.1211 77.2569 35.5272 76.893 34.9395 76.5194L34.4591 76.1991C34.0318 75.9251 33.6091 75.6441 33.1911 75.3561L32.7833 75.0694C32.3807 74.7849 31.9812 74.4961 31.5848 74.203L31.0544 73.8015C30.6902 73.5246 30.3297 73.2428 29.9731 72.9561L29.4911 72.5694C29.037 72.1972 28.588 71.8187 28.1442 71.4343L27.9966 71.3101C27.5185 70.888 27.0465 70.4591 26.5809 70.0233L26.1817 69.6397C25.8372 69.3116 25.4981 68.9811 25.1645 68.6421L24.7661 68.2444C24.3428 67.8112 23.9266 67.371 23.5177 66.9241L23.4559 66.8585C23.025 66.3861 22.6028 65.9058 22.1895 65.4179L21.8583 65.0241C21.5495 64.6526 21.2455 64.277 20.9466 63.8976L20.613 63.4819C20.2555 63.0198 19.9047 62.5526 19.5606 62.0804C10.0684 49.1319 6.6575 31.2741 14.2442 16.6085M34.2669 14.7069C28.0348 23.6741 28.3739 35.6788 33.2348 45.1624C34.0492 46.7562 34.9701 48.2932 35.9911 49.7632C36.9247 51.1015 37.9598 52.6936 39.1989 53.7686C39.652 54.2649 40.1183 54.749 40.5973 55.2202L40.9661 55.5835C41.4315 56.037 41.9076 56.4794 42.3942 56.9101L42.452 56.9601L42.4661 56.9741C43.0104 57.4482 43.5666 57.9085 44.1341 58.3546L44.513 58.6499C45.0835 59.0895 45.6652 59.5143 46.2575 59.9241L46.3083 59.9624C46.5708 60.1436 46.838 60.3124 47.1044 60.4874L47.4817 60.7366C47.9067 61.01 48.3377 61.2744 48.7747 61.5296L48.9583 61.6358C49.3364 61.8535 49.7174 62.0666 50.1012 62.2749L50.5083 62.4866C50.7731 62.6249 51.038 62.7663 51.3075 62.9007L51.4286 62.9554C51.9778 63.2257 52.5317 63.4866 53.0973 63.7327L53.4661 63.8843C53.9184 64.0765 54.3755 64.264 54.8333 64.439L55.4192 64.6538C55.8356 64.8085 56.2536 64.9491 56.6747 65.0905L57.2427 65.2726C57.8419 65.4585 58.4341 65.6936 59.0583 65.7976C91.2325 71.128 98.6606 46.3554 98.6606 46.3554C91.9653 55.9983 78.9981 60.5999 65.1614 57.0077C64.5497 56.847 63.9419 56.6714 63.3387 56.4811L62.7911 56.3038C62.3636 56.1656 61.9388 56.0192 61.5169 55.8647L60.9419 55.6507C60.4815 55.474 60.0241 55.2896 59.57 55.0976L59.2005 54.9413C58.6348 54.695 58.0752 54.4348 57.5223 54.1608C57.2387 54.0226 56.9598 53.8765 56.6802 53.7327L56.1942 53.4827C55.8358 53.2884 55.4808 53.0878 55.1294 52.8812L54.8747 52.7366C54.4395 52.4828 54.0095 52.2203 53.5848 51.9491L53.1958 51.6897C52.9155 51.5085 52.6371 51.3244 52.3606 51.1374C51.7709 50.7273 51.1911 50.3032 50.6216 49.8655L50.2302 49.5569C44.1739 44.7757 39.3723 38.2397 37.0903 30.8296C34.6981 23.1452 35.2137 14.5187 39.3583 7.51709M56.763 6.91162C53.0895 12.3179 52.7286 19.0319 55.2778 25.0022C57.9661 31.3405 63.4739 36.3116 69.9028 38.6702C70.1677 38.7679 70.4333 38.8554 70.7013 38.9468L71.0536 39.0585C71.4325 39.1772 71.8083 39.3155 72.1997 39.3897C89.9653 42.8226 94.7841 30.2733 96.0661 28.4257C91.8458 34.503 84.752 35.9616 76.0481 33.8491C75.3606 33.6827 74.6052 33.4343 73.9427 33.1991C73.0915 32.8971 72.2567 32.5505 71.4419 32.1608C69.895 31.4173 68.4263 30.5212 67.0575 29.4858C59.2692 23.5757 54.4309 12.303 59.513 3.12256" fill="#0868AC"/>
</svg>
